<?xml version="1.0" encoding="UTF-8" standalone="no"?>
<!-- Generator: Adobe Illustrator 14.0.0, SVG Export Plug-In . SVG Version: 6.00 Build 43363)  -->

<svg
   xmlns:dc="http://purl.org/dc/elements/1.1/"
   xmlns:cc="http://creativecommons.org/ns#"
   xmlns:rdf="http://www.w3.org/1999/02/22-rdf-syntax-ns#"
   xmlns:svg="http://www.w3.org/2000/svg"
   xmlns="http://www.w3.org/2000/svg"
   xmlns:sodipodi="http://sodipodi.sourceforge.net/DTD/sodipodi-0.dtd"
   xmlns:inkscape="http://www.inkscape.org/namespaces/inkscape"
   version="1.0"
   id="Layer_1"
   x="0px"
   y="0px"
   width="45.618683"
   height="38.212597"
   viewBox="0 0 45.618683 38.212596"
   enable-background="new 0 0 73.041 100"
   xml:space="preserve"
   inkscape:version="0.48.0 r9654"
   sodipodi:docname="3-gears-small.svg"><metadata
   id="metadata11"><rdf:RDF><cc:Work
       rdf:about=""><dc:format>image/svg+xml</dc:format><dc:type
         rdf:resource="http://purl.org/dc/dcmitype/StillImage" /><dc:title></dc:title></cc:Work></rdf:RDF></metadata><defs
   id="defs9" /><sodipodi:namedview
   pagecolor="#ffffff"
   bordercolor="#666666"
   borderopacity="1"
   objecttolerance="10"
   gridtolerance="10"
   guidetolerance="10"
   inkscape:pageopacity="0"
   inkscape:pageshadow="2"
   inkscape:window-width="902"
   inkscape:window-height="698"
   id="namedview7"
   showgrid="false"
   inkscape:zoom="2.66"
   inkscape:cx="7.3070485"
   inkscape:cy="15.534424"
   inkscape:window-x="298"
   inkscape:window-y="128"
   inkscape:window-maximized="0"
   inkscape:current-layer="Layer_1"
   fit-margin-top="1"
   fit-margin-right="1"
   fit-margin-bottom="1"
   fit-margin-left="1"
   units="px" />


<g
   id="g3104"
   transform="matrix(0.36212867,0,0,0.36212867,0.63787148,0.62051632)"><path
     inkscape:connector-curvature="0"
     id="path3"
     d="m 22.46325,73.664924 c 0,-3.271 2.651,-5.919 5.921,-5.919 3.269,0 5.919,2.648 5.919,5.919 0,3.27 -2.65,5.919 -5.919,5.919 -3.269,0 -5.921,-2.65 -5.921,-5.919 z m 8.209,-27.287 c -1.523,-0.128 -3.055,-0.128 -4.578,0 l -2.707,7.382 c -1.968,0.493 -3.833,1.281 -5.531,2.294 l -7.151,-3.303 c -1.1670004,0.987 -2.2490004,2.07 -3.2360004,3.237 l 3.3070004,7.135 c -1.0440004,1.738 -1.8060004,3.616 -2.2900004,5.532 l -7.391,2.721 c -0.12700001,1.523 -0.12700001,3.054 0,4.579 l 7.383,2.706 c 0.492,1.968 1.28,3.834 2.2920004,5.529 l -3.3010004,7.152 c 0.987,1.166 2.069,2.25 3.2360004,3.236 l 7.135,-3.306 c 1.739,1.043 3.616,1.805 5.532,2.287 l 2.721,7.393006 c 1.523,0.127 3.054,0.127 4.578,0 l 2.707,-7.384006 c 1.968,-0.491 3.833,-1.279 5.53,-2.292 l 7.151,3.302 c 1.166,-0.986 2.25,-2.07 3.237,-3.236 l -3.308,-7.134 c 1.044,-1.74 1.806,-3.617 2.29,-5.534 l 7.390999,-2.72 c 0.127,-1.525 0.127,-3.056 0,-4.579 l -7.381999,-2.706 c -0.493,-1.969 -1.282,-3.834 -2.294,-5.531 l 3.302,-7.15 c -0.986,-1.167 -2.07,-2.25 -3.236,-3.237 l -7.134,3.307 c -1.74,-1.043 -3.617,-1.805 -5.533,-2.29 l -2.72,-7.39 z" /><path
     inkscape:connector-curvature="0"
     id="path5"
     d="m 42.48425,29.399924 c -1.25,-3.021 0.185,-6.483 3.205,-7.735 3.02,-1.25 6.484,0.185 7.732999,3.205 1.252,3.021 -0.184,6.483 -3.202999,7.734 -3.02,1.251 -6.483,-0.183 -7.735,-3.204 z m -2.857,-28.3519993 c -1.458,0.465 -2.871,1.051 -4.23,1.751 l 0.325,7.8579993 c -1.63,1.208 -3.052,2.649 -4.232,4.235 l -7.871,-0.315 c -0.7,1.359 -1.286,2.773 -1.752,4.23 l 5.786,5.326 c -0.299,2.005 -0.285,4.031 0.002,5.987 l -5.788,5.341 c 0.465,1.457 1.051,2.871 1.752,4.23 l 7.857,-0.325 c 1.207,1.63 2.649,3.053 4.235,4.232 l -0.315,7.87 c 1.359,0.701 2.773,1.286 4.23,1.752 l 5.326,-5.786 c 2.006,0.298 4.031,0.285 5.986,0 l 5.343999,5.788 c 1.455,-0.466 2.869,-1.053 4.229,-1.753 l -0.323,-7.855 c 1.628,-1.208 3.051001,-2.65 4.23,-4.236 l 7.871,0.315 c 0.700001,-1.359 1.285001,-2.773 1.752001,-4.23 l -5.786001,-5.326 c 0.298,-2.007 0.284,-4.031 -0.003,-5.986 l 5.788001,-5.344 c -0.466,-1.457 -1.051,-2.871 -1.751001,-4.229 l -7.858,0.325 c -1.205999,-1.63 -2.649,-3.052 -4.234,-4.232 l 0.314,-7.8709993 c -1.359,-0.699 -2.773,-1.285 -4.229,-1.75 l -5.324999,5.785 c -2.008,-0.298 -4.032,-0.284 -5.987,0 l -5.343,-5.787 z" /><path
     inkscape:connector-curvature="0"
     id="path3026"
     d="m 37.300584,52.145424 -1.762519,-0.7588 0.218382,-3.8564 0.218382,-3.8563 -2.25467,-2.2547 -2.25467,-2.2546 -3.78149,0.182 -3.781491,0.1821 -0.784364,-1.5374 c -0.4314,-0.8457 -0.784364,-1.7822 -0.784364,-2.0812 0,-0.299 1.21568,-1.6692 2.701511,-3.0449 l 2.701511,-2.5012 0.02405,-3.2307 0.02405,-3.2307 -2.725564,-2.4494 c -1.49906,-1.3472 -2.721127,-2.7169 -2.715705,-3.0439 0.0054,-0.327 0.31329,-1.2702 0.684151,-2.0961 l 0.674293,-1.5016 3.921112,0.1178 3.921112,0.1179 2.219918,-2.2575 2.219925,-2.2574 -0.231701,-3.8031993 -0.231701,-3.8032 1.708363,-0.7323 c 0.9396,-0.4028 1.863996,-0.7323 2.054212,-0.7323 0.190217,0 1.513357,1.2291 2.940311,2.7313 l 2.594462,2.7313 3.176529,-0.01 3.176529,-0.01 2.637387,-2.8155 2.637388,-2.8155 1.834906,0.7655 1.834905,0.7655 0,3.9742 0,3.9741993 2.139573,2.1606 2.13957,2.1606 3.90962,-0.1447 3.909617,-0.1447 0.800745,1.887 0.800741,1.8869 -2.80858,2.645 -2.808579,2.645 0,3.2389 0,3.239 2.815188,2.629 2.815189,2.6291 -0.816838,1.9656 -0.81684,1.9655 -3.879522,-0.1725 -3.879523,-0.1726 -2.247326,2.2473 -2.247324,2.2474 0.234034,3.825 0.234037,3.825 -2.004352,0.8622 -2.00435,0.8623 -2.593989,-2.8609 -2.593988,-2.8609 -3.263399,0 -3.263399,0 -2.553656,2.8196 c -1.40451,1.5507 -2.66967,2.8058 -2.811467,2.7891 -0.141797,-0.017 -1.050946,-0.3719 -2.020332,-0.7893 l 0,0 z M 51.1906,32.290524 c 3.916704,-2.388 3.584798,-8.5638 -0.568298,-10.5743 -3.874781,-1.8757 -8.164317,0.4651 -8.643551,4.7168 -0.255535,2.2671 0.722022,4.4901 2.508288,5.7039 1.734303,1.1785 4.90351,1.2511 6.703561,0.1536 z"
     style="fill:#2e3436;stroke:none" /><path
     inkscape:connector-curvature="0"
     id="path3028"
     d="m 24.909145,97.096424 c -0.692766,-1.9871 -1.513335,-3.6984 -1.823485,-3.8028 -0.31015,-0.1044 -1.609114,-0.6632 -2.886585,-1.2418 l -2.322675,-1.052 -2.376573,1.1269 c -5.012616,2.3768 -4.590295,2.3333 -6.2773654,0.6462 l -1.492512,-1.4925 1.6468,-3.5481 1.6468014,-3.5482 -1.0683604,-2.3576 c -0.587597,-1.2966 -1.153748,-2.6113 -1.258112,-2.9215 -0.104364,-0.3101 -1.815643,-1.1307 -3.802842,-1.8235 l -3.613089,-1.2595 0,-2.1736 0,-2.1736 3.617322,-1.2661 c 1.993841,-0.6979 3.700584,-1.5192 3.802841,-1.83 0.102037,-0.3101 0.664139,-1.6202 1.249116,-2.9113 l 1.0635954,-2.3474 -1.6344984,-3.5217 -1.634497,-3.5216 1.519315,-1.5193 1.5193144,-1.5193 3.521624,1.6345 3.521624,1.6345 2.347423,-1.0636 c 1.291083,-0.585 2.601183,-1.1471 2.911333,-1.2491 0.310823,-0.1023 1.132129,-1.809 1.829976,-3.8029 l 1.266066,-3.6173 2.160303,0 2.160303,0 0.597608,1.5977 c 0.328685,0.8788 0.955928,2.5705 1.393875,3.7594 0.437947,1.189 0.995578,2.1618 1.239181,2.162 0.243602,2e-4 1.501997,0.5013 2.796433,1.1137 l 2.353522,1.1134 3.582421,-1.6627 3.582425,-1.6627 1.475338,1.4753 1.475338,1.4753 -0.593233,1.4233 c -0.326282,0.7829 -0.996883,2.2213 -1.490229,3.1966 -0.949534,1.877 -1.139169,3.2853 -0.52509,3.8994 0.204545,0.2045 0.679692,1.2774 1.055879,2.3841 l 0.683978,2.0123 3.643368,1.3063 3.643364,1.3063 0,2.1808 0,2.1807 -3.305277,1.1824 c -1.817902,0.6503 -3.484684,1.2986 -3.703963,1.4408 -0.219278,0.1421 -0.6835,1.1043 -1.031601,2.1382 -0.348105,1.0338 -0.857466,2.285 -1.13191,2.7805 -0.450658,0.8135 -0.336289,1.249 1.180699,4.4953 l 1.679696,3.5944 -1.526455,1.4239 -1.526455,1.4238 -2.810105,-1.2806 c -1.545557,-0.7043 -3.112053,-1.4496 -3.481098,-1.6561 -0.488594,-0.2734 -1.032199,-0.1917 -1.999744,0.3008 -0.730812,0.372 -2.045328,0.8904 -2.921147,1.152 -1.461074,0.4365 -1.65628,0.6492 -2.367,2.5795 -0.426031,1.1571 -1.043525,2.8227 -1.37221,3.7015 l -0.597608,1.597706 -2.166794,0 -2.166794,0 -1.259575,-3.613106 z m 7.083323,-18.4849 c 1.671844,-1.1905 2.490018,-3.1581 2.294345,-5.5176 -0.606909,-7.3186 -11.157552,-7.2226 -11.861916,0.1079 -0.22434,2.3347 0.854104,4.4688 2.863218,5.6658 1.795501,1.0698 5.015059,0.9468 6.704353,-0.2561 z"
     style="fill:#2e3436;stroke:none" /><path
     inkscape:connector-curvature="0"
     id="path3028-0"
     d="m 91.167029,69.897424 c -0.713539,-1.9799 -1.551984,-3.6825 -1.863208,-3.7836 -0.311227,-0.1011 -1.615971,-0.6463 -2.899431,-1.2115 l -2.333565,-1.0276 -2.36464,1.1517 c -4.987453,2.4291 -4.565611,2.3812 -6.270256,0.7119 l -1.508059,-1.4768 1.609555,-3.5651 1.609556,-3.5652 -1.09299,-2.3463 c -0.601143,-1.2905 -1.18103,-2.5992 -1.288636,-2.9082 -0.107607,-0.309 -1.827385,-1.1116 -3.821729,-1.7836 l -3.626081,-1.2216 -0.02276,-2.1735 -0.02276,-2.1735 3.603867,-1.3039 c 1.986424,-0.7187 3.684473,-1.5578 3.78347,-1.8697 0.09879,-0.3112 0.647135,-1.6271 1.218559,-2.9242 l 1.038955,-2.3585 -1.671287,-3.5043 -1.671285,-3.5043 1.503323,-1.5351 1.50332,-1.5352 3.538549,1.5976 3.538546,1.5975 2.336156,-1.0881 c 1.284887,-0.5985 2.589029,-1.1743 2.898093,-1.2796 0.309736,-0.1055 1.113123,-1.8207 1.790054,-3.8218 l 1.228115,-3.6303 2.160184,-0.023 2.160186,-0.023 0.614305,1.5914 c 0.337869,0.8753 0.982793,2.5603 1.433167,3.7446 0.450373,1.1842 1.018161,2.1512 1.261751,2.1488 0.243592,0 1.507167,0.4856 2.807947,1.0844 l 2.36505,1.0887 3.56481,-1.7001 3.56483,-1.7002 1.4907,1.4598 1.49071,1.4598 -0.57831,1.4295 c -0.31807,0.7862 -0.97355,2.2315 -1.45667,3.2119 -0.92981,1.8869 -1.1047,3.2971 -0.48422,3.9047 0.20667,0.2024 0.69302,1.2703 1.08079,2.373 l 0.705,2.0049 3.65685,1.2682 3.65685,1.2681 0.0232,2.1806 0.0232,2.1806 -3.29272,1.2169 c -1.811,0.6693 -3.47089,1.3351 -3.68867,1.4795 -0.21779,0.1445 -0.67191,1.1115 -1.00915,2.1489 -0.33728,1.0374 -0.8335,2.2939 -1.10274,2.7922 -0.44211,0.8182 -0.32319,1.2525 1.22771,4.4827 l 1.71724,3.5766 -1.51145,1.4398 -1.51148,1.4398 -2.82336,-1.2511 c -1.55284,-0.6882 -3.12705,-1.417 -3.49823,-1.6196 -0.49143,-0.2683 -1.03415,-0.1809 -1.99648,0.3217 -0.72689,0.3796 -2.0359,0.9117 -2.90893,1.1826 -1.456434,0.4517 -1.649401,0.6665 -2.33987,2.6041 -0.413892,1.1614 -1.013908,2.8335 -1.333373,3.7156 l -0.580844,1.604 -2.166674,0.023 -2.166677,0.023 -1.297339,-3.5997 z m 6.889363,-18.5581 c 1.659287,-1.2079 2.456818,-3.184 2.236438,-5.5414 -0.683511,-7.3118 -11.23257,-7.1053 -11.860134,0.2321 -0.199878,2.337 0.900854,4.4596 2.922392,5.6356 1.806606,1.0509 5.024699,0.8942 6.701304,-0.3263 z"
     style="fill:#2e3436;stroke:none" /></g></svg>